<svg xmlns="http://www.w3.org/2000/svg" version="1.1" xmlns:xlink="http://www.w3.org/1999/xlink" xmlns:svgjs="http://svgjs.dev/svgjs" width="2000" height="1250" viewBox="0 0 2000 1250"><g transform="matrix(1,0,0,1,0,0)"><svg viewBox="0 0 512 320" data-background-color="#ffffff" preserveAspectRatio="xMidYMid meet" height="1250" width="2000" xmlns="http://www.w3.org/2000/svg" xmlns:xlink="http://www.w3.org/1999/xlink"><g id="tight-bounds" transform="matrix(1,0,0,1,0,0)"><svg viewBox="0 0 512 320" height="320" width="512"><g><svg></svg></g><g><svg viewBox="0 0 512 320" height="320" width="512"><g><path transform="translate(256,160) scale(160,160)" d="M-1 0c0-0.552 0.448-1 1-1 0.552 0 1 0.448 1 1 0 0.552-0.448 1-1 1-0.552 0-1-0.448-1-1z" fill="#8abe53" fill-rule="nonzero" stroke="none" stroke-width="1" stroke-linecap="butt" stroke-linejoin="miter" stroke-miterlimit="10" stroke-dasharray="" stroke-dashoffset="0" font-family="none" font-weight="none" font-size="none" text-anchor="none" style="mix-blend-mode: normal" data-fill-palette-color="tertiary"></path></g><g transform="matrix(1,0,0,1,215.61213980248323,80)"><svg viewBox="0 0 80.77572039503355 160" height="160" width="80.77572039503355"><g><svg viewBox="0 0 163.32899869960988 323.5209746708038" height="160" width="80.77572039503355"><g transform="matrix(1,0,0,1,0,163.5209746708038)"><svg viewBox="0 0 163.32899869960988 160" height="160" width="163.32899869960988"><g id="textblocktransform"><svg viewBox="0 0 163.32899869960988 160" height="160" width="163.32899869960988" id="textblock"><g><svg viewBox="0 0 163.32899869960988 160" height="160" width="163.32899869960988"><g transform="matrix(1,0,0,1,0,0)"><svg width="163.32899869960988" viewBox="1.7 -37.7 39.25 38.45" height="160" data-palette-color="#ffffff"><path d="M15.8-37.7L21.95-37.05 21.95 0 16.5 0 16.2-3.05Q13.85 0.75 10.15 0.75L10.15 0.75Q6.05 0.75 3.88-2.93 1.7-6.6 1.7-13.2L1.7-13.2Q1.7-17.4 2.83-20.58 3.95-23.75 5.95-25.45 7.95-27.15 10.55-27.15L10.55-27.15Q13.75-27.15 15.8-24.5L15.8-24.5 15.8-37.7ZM11.9-3.9Q13.05-3.9 13.98-4.7 14.9-5.5 15.8-7L15.8-7 15.8-19.85Q14.2-22.55 12.15-22.55L12.15-22.55Q8.1-22.55 8.1-13.25L8.1-13.25Q8.1-8.2 9.1-6.05 10.1-3.9 11.9-3.9L11.9-3.9ZM38.8-5L40.95-1.2Q38.5 0.75 35.2 0.75L35.2 0.75Q31.75 0.75 29.95-1.23 28.15-3.2 28.15-6.6L28.15-6.6 28.15-22 25.05-22 25.05-26.45 28.15-26.45 28.15-32.3 34.3-33.05 34.3-26.45 39.3-26.45 38.7-22 34.3-22 34.3-6.6Q34.3-4.2 36.35-4.2L36.35-4.2Q37-4.2 37.5-4.38 38-4.55 38.8-5L38.8-5Z" opacity="1" transform="matrix(1,0,0,1,0,0)" fill="#ffffff" class="wordmark-text-0" data-fill-palette-color="quaternary" id="text-0"></path></svg></g></svg></g></svg></g></svg></g><g transform="matrix(1,0,0,1,31.195838751625487,0)"><svg viewBox="0 0 100.93732119635891 125.7488146708038" height="125.7488146708038" width="100.93732119635891"><g><svg xmlns="http://www.w3.org/2000/svg" xmlns:xlink="http://www.w3.org/1999/xlink" version="1.1" x="0" y="0" viewBox="148.3749511907187 23.7 455.106635403995 566.976805730153" style="enable-background:new 0 0 750 612;" xml:space="preserve" height="125.7488146708038" width="100.93732119635891" class="icon-icon-0" data-fill-palette-color="quaternary" id="icon-0"><g fill="#ffffff" data-fill-palette-color="quaternary"><path d="M320.5 155.5c-4.4 0-7.9 3.8-7.9 8.7 0 4.8 3.5 8.7 7.9 8.7 4.4 0 8-4 8-8.7C328.5 159.4 325 155.5 320.5 155.5z" fill="#ffffff" data-fill-palette-color="quaternary"></path><path d="M430.4 155.5c-4.4 0-7.9 3.8-7.9 8.7 0 4.8 3.5 8.7 7.9 8.7 4.5 0 8-4 8-8.7C438.4 159.4 434.8 155.5 430.4 155.5z" fill="#ffffff" data-fill-palette-color="quaternary"></path><path d="M375 177.4c-7.2 0-25 16.7-25 21.7 0 5 19.9 17 24.9 17 5.1 0 24.2-12.2 24.2-17.8C399 193 382.3 177.4 375 177.4z" fill="#ffffff" data-fill-palette-color="quaternary"></path><path d="M548 249.6l-0.7 1.8c-0.2-34.9 2.8-71.2-3.8-96.9C513.4 38.3 409.9 24.1 375.5 23.7c-34.4 0.4-137.8 14.6-167.9 130.9-6.5 25.3-3.7 60.9-3.8 95.4l-0.1-0.3c0 0-75.9 93.7-49.9 116.4 5.7 5 19.7-5.7 34.7-17.8-11.2 61.2-13.7 159.6 89.5 196.3-5.2 4-12.1 11.4-16 24.6-3.7 12.5 21.5 1.3 21.5 1.3S287 588 295.2 590c0 0 0.1 0 0.1 0 0.1 0 0.1 0 0.2 0.1 8.2 2 18-12.4 18-12.4s18.7 21.9 20 8.8c1.4-14.3-2.4-24.5-5.7-30.4 14.2 1.9 30.2 3.1 48.3 3.1 19 0 35.5-1.2 49.8-3.3-3.3 5.9-7.2 16.2-5.8 30.6 1.3 13.1 20-8.8 20-8.8s9.8 14.4 18 12.4c0.1 0 0.1-0.1 0.2-0.1 0 0 0.1 0 0.2 0 8.2-2 11.7-19.6 11.7-19.6s25.2 11.3 21.5-1.3c-4.2-13.9-11.6-21.5-16.9-25.2 101.8-37.4 99-135.5 87.8-196.4 15.3 12.4 29.7 23.5 35.5 18.4C624 343.3 548 249.6 548 249.6zM508.9 509c-5.4 6-41.8 42.2-132.1 42.2-99.9 0-132.6-39.6-135-42.8-48.8-73.8 19-202.6 13.6-222.6-9.3-34.5-13.3-87.9-7.9-112.7 14.4-66.2 44.4-80.8 74-80.8 24.4 0 43.6 14.9 54.2 29.6 10.5-14.7 29.7-29.6 54.1-29.6 29.5 0 59.6 14.6 74 80.8 5.4 24.7 1.3 78.2-7.9 112.7C490.4 305.7 558.5 435.3 508.9 509z" fill="#ffffff" data-fill-palette-color="quaternary"></path></g></svg></g></svg></g><g></g></svg></g></svg></g></svg></g><defs></defs></svg><rect width="512" height="320" fill="none" stroke="none" visibility="hidden"></rect></g></svg></g></svg>